<svg xmlns="http://www.w3.org/2000/svg" width="20" height="21" viewBox="0 0 20 21" fill="none">
  <g clip-path="url(#clip0_111_10361)">
    <path d="M16.9344 13.6633C18.6556 13.5133 20.0001 12.3341 20.0001 10.9062C20.0001 9.47825 18.6556 8.29904 16.9344 8.14901C16.2671 6.47242 15.0049 5.0854 13.3966 4.26193C13.3537 2.42667 11.8579 0.90625 10.0002 0.90625C8.14381 0.90625 6.64668 2.42499 6.60375 4.26197C4.9954 5.08544 3.73326 6.4725 3.066 8.14904C1.34476 8.29904 0.000244141 9.47825 0.000244141 10.9062C0.000244141 12.3342 1.34496 13.5135 3.06635 13.6633C3.62131 15.0543 4.59747 16.2591 5.83789 17.0974C4.83095 17.8892 4.08197 18.9424 3.69029 20.1377C3.58951 20.4452 3.75713 20.7762 4.06463 20.877C4.37212 20.9777 4.7031 20.8101 4.80388 20.5026C5.17372 19.374 5.93801 18.3979 6.97097 17.7257C8.96611 18.6149 11.2249 18.5619 13.1367 17.6765C14.2092 18.3494 15.0009 19.3431 15.3808 20.5026C15.4816 20.8101 15.8125 20.9777 16.12 20.877C16.4276 20.7762 16.5952 20.4452 16.4944 20.1377C16.0907 18.9057 15.3118 17.829 14.2617 17.031C15.4207 16.2243 16.3778 15.0653 16.9344 13.6633ZM18.8282 10.9062C18.8282 11.5907 18.183 12.1911 17.3082 12.4146C17.5118 11.4239 17.5123 10.3905 17.3082 9.39775C18.183 9.62126 18.8282 10.2217 18.8282 10.9062ZM10.0002 2.07812C11.128 2.07812 12.0626 2.93573 12.2073 4.04376C10.806 4.16419 9.64521 5.13254 9.24802 6.44086C8.37963 6.13203 7.77362 5.30551 7.77362 4.34368C7.77362 3.09448 8.77244 2.07812 10.0002 2.07812ZM1.17211 10.9062C1.17211 10.2217 1.8173 9.62126 2.69218 9.39771C2.48851 10.3884 2.48808 11.4218 2.69218 12.4146C1.8173 12.1911 1.17211 11.5907 1.17211 10.9062ZM12.8937 16.4916C9.52271 18.2425 5.32766 16.6419 4.03424 12.9009C3.09463 10.0899 4.24916 7.0023 6.80019 5.4916C7.22784 6.69007 8.30795 7.58276 9.64103 7.72307C9.96376 7.75702 10.2524 7.52217 10.2853 7.19991C10.4073 6.00523 11.4512 5.11833 12.6686 5.21024C15.5324 6.55378 16.9852 9.85188 15.9661 12.9008C15.3996 14.5431 14.2625 15.781 12.8937 16.4916Z" fill="url(#paint0_linear_111_10361)"/>
    <path d="M8.56154 10.2157C8.79037 9.98688 8.79037 9.61591 8.56154 9.38708C7.72193 8.54747 6.36291 8.54735 5.52318 9.38708C5.29436 9.61591 5.29436 9.98688 5.52318 10.2157C5.75197 10.4445 6.12299 10.4445 6.35182 10.2157C6.7335 9.83407 7.35119 9.83403 7.73287 10.2157C7.9617 10.4445 8.33268 10.4445 8.56154 10.2157Z" fill="url(#paint1_linear_111_10361)"/>
    <path d="M14.4991 9.38708C13.6594 8.54747 12.3004 8.54735 11.4607 9.38708C11.2319 9.61591 11.2319 9.98688 11.4607 10.2157C11.6895 10.4445 12.0605 10.4445 12.2893 10.2157C12.671 9.83407 13.2887 9.83403 13.6704 10.2157C13.8992 10.4445 14.2701 10.4446 14.499 10.2157C14.7279 9.98692 14.7279 9.61591 14.4991 9.38708Z" fill="url(#paint2_linear_111_10361)"/>
    <path d="M11.1329 13.3044C10.5084 13.9289 9.49235 13.9289 8.8679 13.3044C8.63911 13.0756 8.2681 13.0756 8.03927 13.3044C7.81048 13.5332 7.81048 13.9042 8.03927 14.133C9.12063 15.2144 10.8801 15.2144 11.9615 14.133C12.1903 13.9042 12.1903 13.5332 11.9615 13.3044C11.7326 13.0756 11.3617 13.0756 11.1329 13.3044Z" fill="url(#paint3_linear_111_10361)"/>
  </g>
  <defs>
    <linearGradient id="paint0_linear_111_10361" x1="-11.1247" y1="-12.9826" x2="23.7956" y2="-8.83364" gradientUnits="userSpaceOnUse">
      <stop stop-color="#F64D4D"/>
      <stop offset="1" stop-color="#4D5EF6"/>
    </linearGradient>
    <linearGradient id="paint1_linear_111_10361" x1="3.47055" y1="7.62537" x2="9.1153" y2="9.01675" gradientUnits="userSpaceOnUse">
      <stop stop-color="#F64D4D"/>
      <stop offset="1" stop-color="#4D5EF6"/>
    </linearGradient>
    <linearGradient id="paint2_linear_111_10361" x1="9.40805" y1="7.62537" x2="15.0528" y2="9.01675" gradientUnits="userSpaceOnUse">
      <stop stop-color="#F64D4D"/>
      <stop offset="1" stop-color="#4D5EF6"/>
    </linearGradient>
    <linearGradient id="paint3_linear_111_10361" x1="5.49503" y1="11.875" x2="12.4993" y2="13.8349" gradientUnits="userSpaceOnUse">
      <stop stop-color="#F64D4D"/>
      <stop offset="1" stop-color="#4D5EF6"/>
    </linearGradient>
    <clipPath id="clip0_111_10361">
      <rect width="20" height="20" fill="white" transform="translate(0 0.90625)"/>
    </clipPath>
  </defs>
</svg>