<svg xmlns="http://www.w3.org/2000/svg" width="30" height="30" viewBox="0 0 30 30" fill="none">
  <path d="M28.5 25.5H1.5C0.67201 25.5 0 26.172 0 27C0 27.828 0.67201 28.5 1.5 28.5H28.5C29.328 28.5 30 27.828 30 26.9999C30 26.172 29.328 25.5 28.5 25.5ZM1.5 4.5H28.5C29.328 4.5 30 3.82804 30 3C30 2.17196 29.328 1.5 28.5 1.5H1.5C0.67201 1.50005 0 2.17201 0 3.00005C0 3.82804 0.67201 4.5 1.5 4.5ZM28.5 13.5H1.5C0.67201 13.5 0 14.172 0 15C0 15.8281 0.67201 16.5 1.5 16.5H28.5C29.328 16.5 30 15.828 30 15C30 14.1721 29.328 13.5 28.5 13.5Z" fill="white"/>
</svg>