<svg xmlns="http://www.w3.org/2000/svg" width="16" height="16" viewBox="0 0 16 16" fill="none">
  <g clip-path="url(#clip0_111_1814)">
    <path d="M13.9658 9.36778C13.7825 6.98156 12.6715 5.48622 11.6914 4.16665C10.7838 2.94503 10 1.89009 10 0.333904C10 0.208904 9.93 0.0946543 9.819 0.037373C9.70766 -0.020252 9.57388 -0.0108145 9.47266 0.062748C8.00066 1.11606 6.77247 2.89134 6.34344 4.58522C6.04559 5.7645 6.00619 7.09025 6.00066 7.96584C4.64128 7.6755 4.33334 5.64212 4.33009 5.61997C4.31478 5.5145 4.25034 5.42272 4.15659 5.37259C4.06188 5.32312 3.95053 5.31953 3.8545 5.36706C3.78322 5.40156 2.10481 6.25437 2.00716 9.6594C2.00031 9.77269 2 9.88631 2 9.9999C2 13.3079 4.69172 15.9995 8 15.9995C8.00456 15.9998 8.00944 16.0005 8.01334 15.9995C8.01466 15.9995 8.01594 15.9995 8.01756 15.9995C11.3177 15.99 14 13.3021 14 9.9999C14 9.83356 13.9658 9.36778 13.9658 9.36778ZM8 15.3329C6.89713 15.3329 6 14.3772 6 13.2025C6 13.1625 5.99969 13.1221 6.00259 13.0726C6.01594 12.5772 6.11003 12.239 6.21322 12.0141C6.40659 12.4294 6.75228 12.8112 7.31381 12.8112C7.49806 12.8112 7.64716 12.6622 7.64716 12.4779C7.64716 12.0034 7.65694 11.4559 7.77509 10.9617C7.88025 10.5236 8.13153 10.0575 8.44991 9.68384C8.5915 10.1688 8.86756 10.5614 9.13709 10.9445C9.52284 11.4926 9.92159 12.0593 9.99159 13.0257C9.99581 13.083 10.0001 13.1407 10.0001 13.2025C10 14.3772 9.10288 15.3329 8 15.3329Z" fill="#FF4343"/>
  </g>
  <defs>
    <clipPath id="clip0_111_1814">
      <rect width="16" height="16" fill="white"/>
    </clipPath>
  </defs>
</svg>