<svg xmlns="http://www.w3.org/2000/svg" width="28" height="26" viewBox="0 0 28 26" fill="none">
  <path d="M5.80859 5.41699H25.5253L23.4669 13.867L5.80859 15.3837V5.41699Z" fill="url(#paint0_linear_111_15875)"/>
  <path d="M7.25 19.0667C6.31766 19.0667 5.5625 18.291 5.5625 17.3333L24.2475 15.6644C24.6789 15.6259 25.0381 15.3118 25.1415 14.8799C25.712 12.4953 27.5 4.97067 27.5 4.33333C27.5 3.85493 27.122 3.46667 26.6562 3.46667H5.5625V1.56C5.5625 0.866667 5.5625 1.34507 5.5625 0.866667C5.5625 0.388267 5.1845 0 4.71875 0L1.34375 3.09944e-07C0.878 3.09944e-07 0.5 0.388267 0.5 0.866667C0.5 1.34507 0.878 1.73333 1.34375 1.73333H3.875V17.3333C3.875 19.2478 5.38616 20.8 7.25 20.8L22.505 20.8C22.505 20.8 21.865 19.981 22.3586 20.54L22.505 20.8L20.75 19.24L7.25 19.0667ZM5.5625 5.2H25.8125L23.6551 14.0642L5.5625 15.6V5.2Z" fill="black"/>
  <path d="M24.0406 22.62C24.0406 24.4867 22.5674 26 20.75 26C18.9326 26 17.4594 24.4867 17.4594 22.62C17.4594 20.7533 18.9326 19.24 20.75 19.24C22.5674 19.24 24.0406 20.7533 24.0406 22.62ZM19.1414 22.62C19.1414 23.5325 19.8616 24.2723 20.75 24.2723C21.6384 24.2723 22.3586 23.5325 22.3586 22.62C22.3586 21.7075 21.6384 20.9677 20.75 20.9677C19.8616 20.9677 19.1414 21.7075 19.1414 22.62Z" fill="black"/>
  <path d="M12.1438 22.62C12.1438 24.4867 10.6705 26 8.85313 26C7.03577 26 5.5625 24.4867 5.5625 22.62C5.5625 20.7533 7.03577 19.24 8.85313 19.24C10.6705 19.24 12.1438 20.7533 12.1438 22.62ZM7.24454 22.62C7.24454 23.5325 7.96473 24.2723 8.85313 24.2723C9.74153 24.2723 10.4617 23.5325 10.4617 22.62C10.4617 21.7075 9.74153 20.9677 8.85313 20.9677C7.96473 20.9677 7.24454 21.7075 7.24454 22.62Z" fill="black"/>
  <defs>
    <linearGradient id="paint0_linear_111_15875" x1="-5.1588" y1="-1.50431" x2="27.9252" y2="6.27193" gradientUnits="userSpaceOnUse">
      <stop stop-color="#F64D4D"/>
      <stop offset="1" stop-color="#4D5EF6"/>
    </linearGradient>
  </defs>
</svg>