<svg xmlns="http://www.w3.org/2000/svg" width="16" height="16" viewBox="0 0 16 16" fill="none">
  <path d="M15.9424 12.4323L15.0131 9.7278C15.4611 8.81211 15.6978 7.79373 15.6994 6.76908C15.7021 4.98742 15.0128 3.30282 13.7584 2.02563C12.5037 0.748188 10.8317 0.029093 9.05049 0.000874186C7.20346 -0.0283134 5.46733 0.674251 4.16211 1.97944C2.90354 3.23797 2.20548 4.89713 2.18338 6.67014C0.942944 7.60408 0.210786 9.06017 0.213192 10.6155C0.214348 11.3433 0.378161 12.0667 0.688568 12.721L0.0484728 14.5837C-0.0615586 14.9039 0.0188165 15.2516 0.258255 15.4911C0.426755 15.6596 0.648912 15.7493 0.877381 15.7493C0.973506 15.7493 1.07076 15.7334 1.1656 15.7008L3.02839 15.0607C3.68261 15.3712 4.40608 15.535 5.13389 15.5361C5.13651 15.5361 5.13901 15.5361 5.14164 15.5361C6.72008 15.5361 8.18727 14.785 9.11781 13.5142C10.0862 13.4887 11.0442 13.2543 11.9104 12.8306L14.6149 13.7599C14.7276 13.7986 14.8432 13.8175 14.9574 13.8175C15.2289 13.8175 15.4929 13.7108 15.6932 13.5105C15.9777 13.226 16.0732 12.8128 15.9424 12.4323ZM5.14158 14.5837C5.13955 14.5837 5.13739 14.5837 5.13536 14.5837C4.49117 14.5828 3.85145 14.424 3.28548 14.1245C3.1691 14.063 3.03248 14.0523 2.90804 14.0951L0.997944 14.7514L1.65429 12.8414C1.69704 12.7169 1.68641 12.5803 1.62485 12.4639C1.32541 11.8979 1.1666 11.2582 1.1656 10.614C1.16401 9.5778 1.5671 8.59564 2.27201 7.8602C2.50226 9.26383 3.17123 10.5573 4.20817 11.5758C5.23745 12.5867 6.53127 13.2304 7.92727 13.4409C7.19014 14.1674 6.19652 14.5837 5.14158 14.5837ZM15.0197 12.8371C14.9926 12.8642 14.9604 12.8716 14.9243 12.8591L12.0291 11.8642C11.9788 11.847 11.9265 11.8384 11.8743 11.8384C11.7975 11.8384 11.7209 11.857 11.6517 11.8937C10.825 12.331 9.89087 12.5629 8.95018 12.5644C8.94709 12.5644 8.94427 12.5644 8.94118 12.5644C5.7892 12.5644 3.18567 10.0039 3.13573 6.8527C3.11057 5.26567 3.71426 3.77413 4.83555 2.65285C5.95683 1.53156 7.44861 0.928095 9.03543 0.953095C12.1897 1.00313 14.7519 3.61147 14.747 6.76758C14.7455 7.70826 14.5136 8.64242 14.0763 9.46902C14.0148 9.58536 14.0042 9.72199 14.0469 9.84646L15.0418 12.7417C15.0542 12.778 15.0467 12.8101 15.0197 12.8371Z" fill="url(#paint0_linear_111_193419)"/>
  <path d="M11.7778 4.23447H6.10404C5.84104 4.23447 5.62785 4.44769 5.62785 4.71065C5.62785 4.97366 5.84107 5.18684 6.10404 5.18684H11.7778C12.0408 5.18684 12.254 4.97362 12.254 4.71065C12.254 4.44769 12.0408 4.23447 11.7778 4.23447Z" fill="url(#paint1_linear_111_193419)"/>
  <path d="M11.7778 6.19292H6.10404C5.84104 6.19292 5.62785 6.40614 5.62785 6.6691C5.62785 6.93207 5.84107 7.14529 6.10404 7.14529H11.7778C12.0408 7.14529 12.254 6.93207 12.254 6.6691C12.254 6.40614 12.0408 6.19292 11.7778 6.19292Z" fill="url(#paint2_linear_111_193419)"/>
  <path d="M9.59396 8.15146H6.10417C5.84117 8.15146 5.62798 8.36468 5.62798 8.62765C5.62798 8.89065 5.8412 9.10383 6.10417 9.10383H9.59393C9.85693 9.10383 10.0701 8.89061 10.0701 8.62765C10.0701 8.36468 9.85696 8.15146 9.59396 8.15146Z" fill="url(#paint3_linear_111_193419)"/>
  <defs>
    <linearGradient id="paint0_linear_111_193419" x1="-8.90001" y1="-10.937" x2="19.024" y2="-7.56646" gradientUnits="userSpaceOnUse">
      <stop stop-color="#F64D4D"/>
      <stop offset="1" stop-color="#4D5EF6"/>
    </linearGradient>
    <linearGradient id="paint1_linear_111_193419" x1="-8.90001" y1="-10.937" x2="19.024" y2="-7.56646" gradientUnits="userSpaceOnUse">
      <stop stop-color="#F64D4D"/>
      <stop offset="1" stop-color="#4D5EF6"/>
    </linearGradient>
    <linearGradient id="paint2_linear_111_193419" x1="-8.90001" y1="-10.937" x2="19.024" y2="-7.56646" gradientUnits="userSpaceOnUse">
      <stop stop-color="#F64D4D"/>
      <stop offset="1" stop-color="#4D5EF6"/>
    </linearGradient>
    <linearGradient id="paint3_linear_111_193419" x1="-8.90001" y1="-10.937" x2="19.024" y2="-7.56646" gradientUnits="userSpaceOnUse">
      <stop stop-color="#F64D4D"/>
      <stop offset="1" stop-color="#4D5EF6"/>
    </linearGradient>
  </defs>
</svg>