<svg xmlns="http://www.w3.org/2000/svg" width="21" height="21" viewBox="0 0 21 21" fill="none">
  <g clip-path="url(#clip0_111_10230)">
    <path d="M18.5644 18.2573L13.9373 8.07777L14.4846 5.34127L17.1352 3.27971C17.4602 3.02694 17.432 2.52427 17.0767 2.31106C13.6752 0.270129 13.8798 0.361692 13.6804 0.347026C13.5636 0.338634 13.7964 0.30146 10.5 0.960753C7.01022 0.262796 7.52968 0.365966 7.47576 0.356045C7.34526 0.330203 7.19252 0.349614 7.0603 0.428825L3.92323 2.31106C3.56925 2.52344 3.53843 3.02663 3.86535 3.28022L6.4839 5.31131L7.06155 8.0802L2.43556 18.2573C2.25922 18.6453 2.5423 19.0889 2.97102 19.0889H7.14053L7.09033 19.708C7.06265 20.0503 7.3331 20.3438 7.67661 20.3438H13.3233C13.6666 20.3438 13.9373 20.0505 13.9096 19.708L13.8594 19.0889H18.0289C18.4551 19.0889 18.7418 18.6477 18.5644 18.2573ZM13.5897 4.54708C13.4807 4.6319 13.4014 4.75935 13.374 4.896L12.8412 7.5602C12.2586 7.5602 11.6738 7.5602 11.0882 7.5602V4.91059L13.7664 1.69675L15.7354 2.87813L13.5897 4.54708ZM10.5 2.1488C10.5833 2.1488 10.4904 2.16241 12.1184 1.83678L10.5 3.77886L8.8816 1.83678C10.5279 2.16605 10.4185 2.1488 10.5 2.1488ZM7.23358 1.69675L9.91181 4.91059V7.5602C9.32596 7.5602 8.73925 7.5602 8.15478 7.5602C7.54807 4.65198 7.59497 4.78189 7.49851 4.64331C7.42506 4.5381 7.55901 4.65633 5.26562 2.8775L7.23358 1.69675ZM3.88453 17.9125L7.96354 8.93878L7.23593 17.9126H3.88453V17.9125ZM8.31446 19.1674L9.16017 8.73663H11.8398L12.6855 19.1674H8.31446ZM13.764 17.9125L13.0364 8.93874L17.1155 17.9125H13.764Z" fill="url(#paint0_linear_111_10230)"/>
  </g>
  <defs>
    <linearGradient id="paint0_linear_111_10230" x1="-6.64866" y1="-13.5452" x2="21.8341" y2="-10.798" gradientUnits="userSpaceOnUse">
      <stop stop-color="#F64D4D"/>
      <stop offset="1" stop-color="#4D5EF6"/>
    </linearGradient>
    <clipPath id="clip0_111_10230">
      <rect width="20" height="20" fill="white" transform="translate(0.5 0.34375)"/>
    </clipPath>
  </defs>
</svg>