<svg xmlns="http://www.w3.org/2000/svg" width="21" height="21" viewBox="0 0 21 21" fill="none">
  <g clip-path="url(#clip0_111_10269)">
    <path d="M20.3715 7.86821L17.5768 4.28145C16.8972 3.40932 15.8734 2.90918 14.7677 2.90918H12.9244C12.6689 2.90918 12.4406 3.06879 12.3529 3.30882C12.0697 4.08332 11.3251 4.60372 10.5 4.60372C9.67492 4.60372 8.93041 4.08332 8.64717 3.30882C8.55946 3.06879 8.33116 2.90918 8.07566 2.90918H6.2322C5.12665 2.90918 4.10273 3.40932 3.42316 4.28154L0.628546 7.86821C0.507098 8.02409 0.468847 8.22917 0.52605 8.41834C0.583253 8.60751 0.728695 8.75712 0.916214 8.81954L4.78987 10.1101V17.7327C4.78987 18.0688 5.06232 18.3413 5.39841 18.3413H15.6016C15.9377 18.3413 16.2102 18.0688 16.2102 17.7327V10.1101L20.0838 8.81954C20.2713 8.75712 20.4168 8.60751 20.474 8.41834C20.5312 8.22917 20.4929 8.02409 20.3715 7.86821ZM16.2102 8.82728V7.93272C16.2102 7.59663 15.9377 7.32417 15.6016 7.32417C15.2655 7.32417 14.9931 7.59663 14.9931 7.93272V17.1242H6.00687V7.93272C6.00687 7.59663 5.73442 7.32417 5.39832 7.32417C5.06223 7.32417 4.78978 7.59663 4.78978 7.93272V8.82728L2.11774 7.93706L4.38318 5.02961C4.83055 4.45549 5.50438 4.12627 6.2322 4.12627H7.68237C8.22962 5.15488 9.31336 5.82072 10.4999 5.82072C11.6865 5.82072 12.7702 5.1548 13.3176 4.12627H14.7677C15.4955 4.12627 16.1694 4.45549 16.6168 5.02952L18.8823 7.93706L16.2102 8.82728Z" fill="url(#paint0_linear_111_10269)"/>
  </g>
  <defs>
    <linearGradient id="paint0_linear_111_10269" x1="-10.625" y1="-7.80755" x2="23.9683" y2="-2.48076" gradientUnits="userSpaceOnUse">
      <stop stop-color="#F64D4D"/>
      <stop offset="1" stop-color="#4D5EF6"/>
    </linearGradient>
    <clipPath id="clip0_111_10269">
      <rect width="20" height="20" fill="white" transform="translate(0.5 0.625)"/>
    </clipPath>
  </defs>
</svg>