<svg xmlns="http://www.w3.org/2000/svg" width="16" height="17" viewBox="0 0 16 17" fill="none">
  <g clip-path="url(#clip0_111_1786)">
    <path d="M15.9665 10.3298L15.2636 8.49998L15.9655 6.6692C16.0435 6.46722 15.9815 6.23725 15.8135 6.10126L14.2907 4.86741L13.9828 2.93064C13.9488 2.71767 13.7808 2.54969 13.5678 2.51569L11.631 2.20773L10.3972 0.684908C10.2612 0.516928 10.0322 0.455935 9.82925 0.532926L7.99947 1.23584L6.16868 0.533926C5.96671 0.455935 5.73774 0.516928 5.60175 0.685908L4.3679 2.20873L2.43113 2.51669C2.21815 2.55069 2.05017 2.71867 2.01618 2.93164L1.70821 4.86841L0.185396 6.10226C0.017416 6.23825 -0.0435767 6.46722 0.0334141 6.6692L0.735331 8.49998L0.0334141 10.3308C-0.0435767 10.5327 0.017416 10.7617 0.185396 10.8977L1.70821 12.1315L2.01618 14.0683C2.05017 14.2813 2.21815 14.4493 2.43113 14.4833L4.3679 14.7912L5.60175 16.314C5.73874 16.483 5.96771 16.545 6.16968 16.466L7.99947 15.7641L9.83025 16.466C9.88824 16.488 9.94923 16.499 10.0092 16.499C10.1562 16.499 10.3012 16.434 10.3982 16.314L11.632 14.7912L13.5688 14.4833C13.7818 14.4493 13.9498 14.2813 13.9838 14.0683L14.2917 12.1315L15.8145 10.8977C15.9825 10.7617 16.0435 10.5317 15.9665 10.3298ZM14.2597 8.67896L14.9006 10.3488L13.5098 11.4746C13.4138 11.5526 13.3498 11.6626 13.3308 11.7846L13.0499 13.5514L11.2831 13.8323C11.1611 13.8513 11.0511 13.9153 10.9731 14.0113L9.84925 15.4022L8.17944 14.7612C8.12145 14.7402 8.06046 14.7282 7.99947 14.7282C7.93847 14.7282 7.87748 14.7392 7.82049 14.7612L6.15069 15.4022L5.02482 14.0113C4.94683 13.9153 4.83684 13.8513 4.71486 13.8323L2.94807 13.5514L2.6671 11.7846C2.6481 11.6626 2.58411 11.5526 2.48812 11.4746L1.09729 10.3498L1.73821 8.67996C1.78221 8.56397 1.78221 8.43598 1.73721 8.321L1.09729 6.6502L2.48812 5.52433C2.58411 5.44634 2.6481 5.33635 2.6671 5.21437L2.94807 3.44758L4.71486 3.16661C4.83684 3.14761 4.94683 3.08362 5.02482 2.98763L6.14969 1.5978L7.81949 2.23872C7.93447 2.28272 8.06246 2.28272 8.17744 2.23872L9.84725 1.5978L10.9731 2.98863C11.0511 3.08462 11.1611 3.14861 11.2831 3.16761L13.0499 3.44858L13.3308 5.21537C13.3498 5.33735 13.4138 5.44734 13.5098 5.52533L14.9006 6.6512L14.2597 8.321C14.2157 8.43598 14.2157 8.56397 14.2597 8.67896Z" fill="url(#paint0_linear_111_1786)"/>
    <path d="M6.49982 4.50049C5.67292 4.50049 5 5.17341 5 6.00031C5 6.82721 5.67292 7.50013 6.49982 7.50013C7.32673 7.50013 7.99965 6.82721 7.99965 6.00031C7.99965 5.17341 7.32673 4.50049 6.49982 4.50049ZM6.49982 6.50025C6.22386 6.50025 5.99988 6.27628 5.99988 6.00031C5.99988 5.72434 6.22386 5.50037 6.49982 5.50037C6.77579 5.50037 6.99976 5.72434 6.99976 6.00031C6.99976 6.27628 6.77579 6.50025 6.49982 6.50025Z" fill="url(#paint1_linear_111_1786)"/>
    <path d="M9.49933 9.5C8.67243 9.5 7.99951 10.1729 7.99951 10.9998C7.99951 11.8267 8.67243 12.4997 9.49933 12.4997C10.3262 12.4997 10.9992 11.8267 10.9992 10.9998C10.9992 10.1729 10.3262 9.5 9.49933 9.5ZM9.49933 11.4998C9.22337 11.4998 8.99939 11.2758 8.99939 10.9998C8.99939 10.7239 9.22337 10.4999 9.49933 10.4999C9.7753 10.4999 9.99927 10.7239 9.99927 10.9998C9.99927 11.2758 9.7753 11.4998 9.49933 11.4998Z" fill="url(#paint2_linear_111_1786)"/>
    <path d="M10.7904 4.59429C10.5664 4.43431 10.2535 4.48631 10.0935 4.71028L5.09409 11.7094C4.93311 11.9334 4.98511 12.2464 5.20908 12.4064C5.29707 12.4694 5.39906 12.4993 5.50004 12.4993C5.65602 12.4993 5.81001 12.4264 5.907 12.2904L10.9064 5.29121C11.0674 5.06624 11.0144 4.75427 10.7904 4.59429Z" fill="url(#paint3_linear_111_1786)"/>
  </g>
  <defs>
    <linearGradient id="paint0_linear_111_1786" x1="-8.89893" y1="-10.6111" x2="19.0357" y2="-7.29232" gradientUnits="userSpaceOnUse">
      <stop stop-color="#F64D4D"/>
      <stop offset="1" stop-color="#4D5EF6"/>
    </linearGradient>
    <linearGradient id="paint1_linear_111_1786" x1="3.33145" y1="2.4174" x2="8.56891" y2="3.03969" gradientUnits="userSpaceOnUse">
      <stop stop-color="#F64D4D"/>
      <stop offset="1" stop-color="#4D5EF6"/>
    </linearGradient>
    <linearGradient id="paint2_linear_111_1786" x1="6.33096" y1="7.41691" x2="11.5684" y2="8.03919" gradientUnits="userSpaceOnUse">
      <stop stop-color="#F64D4D"/>
      <stop offset="1" stop-color="#4D5EF6"/>
    </linearGradient>
    <linearGradient id="paint3_linear_111_1786" x1="1.66345" y1="-1.05262" x2="12.2023" y2="-0.11338" gradientUnits="userSpaceOnUse">
      <stop stop-color="#F64D4D"/>
      <stop offset="1" stop-color="#4D5EF6"/>
    </linearGradient>
    <clipPath id="clip0_111_1786">
      <rect width="16" height="16" fill="white" transform="translate(0 0.5)"/>
    </clipPath>
  </defs>
</svg>