<svg xmlns="http://www.w3.org/2000/svg" width="24" height="24" viewBox="0 0 24 24" fill="none">
  <path d="M15.8407 11.598L12.75 14.6895V6.75C12.75 6.336 12.414 6 12 6C11.586 6 11.25 6.336 11.25 6.75V14.6895L8.15926 11.5987C7.866 11.3055 7.39126 11.3055 7.09875 11.5987C6.80549 11.892 6.80549 12.3667 7.09875 12.6592L11.3415 16.902C11.5215 17.082 11.7675 17.1375 12.0008 17.0962C12.2333 17.1375 12.48 17.0812 12.66 16.902L16.9028 12.6592C17.196 12.366 17.196 11.8913 16.9028 11.5987C16.6087 11.3055 16.134 11.3055 15.8407 11.598ZM12 0C5.37302 0 0 5.37224 0 12C0 18.6278 5.37302 24 12 24C18.627 24 24 18.627 24 12C24 5.37302 18.6278 0 12 0ZM12 22.5C6.20098 22.5 1.5 17.799 1.5 12C1.5 6.20098 6.20098 1.5 12 1.5C17.799 1.5 22.5 6.20098 22.5 12C22.5 17.799 17.799 22.5 12 22.5Z" fill="black"/>
</svg>