<svg xmlns="http://www.w3.org/2000/svg" width="21" height="21" viewBox="0 0 21 21" fill="none">
  <g clip-path="url(#clip0_111_10279)">
    <path d="M20.3282 14.9634C20.3282 14.9634 20.3281 14.9633 20.3281 14.9633C19.7583 14.3936 19.1138 13.9324 18.4051 13.5845C19.7371 12.1214 20.2578 10.3634 20.2578 10.0825C20.2578 9.80672 20.067 9.57543 19.8103 9.51313C18.8581 9.25977 17.8612 9.18445 16.8824 9.28746C16.9185 9.10484 16.9493 8.9207 16.9738 8.73488C17.1225 7.60563 17.0484 6.47527 16.7537 5.37516C16.6665 5.04961 16.3358 4.88047 16.0359 4.96082C14.9321 5.25645 13.8957 5.77254 12.9935 6.46898C12.3939 4.81188 11.4677 3.74934 10.9145 3.19605C10.8046 3.08617 10.6552 3.02441 10.4998 3.02441C10.3444 3.02441 10.1954 3.08617 10.0855 3.19605C9.53402 3.74754 8.6066 4.8102 8.00648 6.46895C7.1043 5.7725 6.06789 5.25641 4.9641 4.96078C4.65145 4.87711 4.33031 5.0625 4.24652 5.37504C4.0416 6.13953 3.77227 7.54 4.11754 9.28742C3.13941 9.18449 2.1432 9.25961 1.19156 9.51258C0.93375 9.57414 0.74207 9.80621 0.74207 10.0829C0.74207 10.2959 1.19992 12.0521 2.59484 13.5845C1.88602 13.9323 1.24152 14.3935 0.671758 14.9633C0.561758 15.0732 0.5 15.2225 0.5 15.3779C0.5 15.5333 0.561758 15.6823 0.671641 15.7922C2.03957 17.1601 3.85832 17.9135 5.79285 17.9135C7.53809 17.9135 9.1891 17.3002 10.4999 16.1759C11.8107 17.3002 13.4616 17.9135 15.2069 17.9135C17.1358 17.9135 18.9496 17.1645 20.3161 15.8041C20.4293 15.6973 20.5 15.5458 20.5 15.3779C20.5 15.216 20.4343 15.0695 20.3282 14.9634ZM16.5427 10.5169C17.328 10.3798 18.136 10.38 18.9214 10.5166C18.3678 12.0376 17.3081 13.3036 15.8896 14.1224C14.9312 14.6759 13.8781 14.9853 12.8038 15.041C14.5237 14.0246 15.4477 12.6917 15.8914 11.9232C16.15 11.4753 16.3684 11.0036 16.5427 10.5169ZM2.07844 10.5166C2.86375 10.38 3.6718 10.3798 4.45703 10.5168C4.63129 11.0036 4.84969 11.4754 5.10824 11.9231C5.55184 12.6914 6.47598 14.0246 8.19586 15.0409C7.12164 14.9852 6.06836 14.6757 5.10996 14.1223C3.69187 13.3038 2.63223 12.0377 2.07844 10.5166ZM5.79281 16.7416C4.37844 16.7416 3.03801 16.2613 1.95766 15.3776C2.43074 14.9904 2.95414 14.6809 3.52145 14.453C3.83809 14.7059 4.17414 14.9353 4.52402 15.1373C5.20941 15.533 6.50309 16.1503 8.27535 16.2144C7.50465 16.5599 6.66277 16.7416 5.79281 16.7416ZM6.12313 11.3372C5.70676 10.6161 4.7932 8.7441 5.24402 6.27508C6.12996 6.59266 6.95215 7.07711 7.65938 7.69957C7.53809 8.28961 7.47676 8.89172 7.47676 9.49414C7.47676 10.4287 7.6216 12.1389 8.67852 13.9636C7.25926 13.0904 6.49422 11.9799 6.12313 11.3372ZM10.4998 14.5159C8.8007 12.528 8.64863 10.3623 8.64863 9.49414C8.64863 8.62504 8.80098 6.45981 10.4998 4.47238C12.1987 6.45984 12.3511 8.62492 12.3511 9.49414C12.3511 10.3631 12.1987 12.5285 10.4998 14.5159ZM13.5229 9.4941C13.5229 8.89168 13.4616 8.28961 13.3403 7.69953C14.0477 7.07699 14.8699 6.59254 15.7559 6.27496C16.2064 8.74406 15.293 10.616 14.8766 11.3371C14.5043 11.982 13.739 13.0912 12.3212 13.9635C13.3777 12.1396 13.5229 10.4292 13.5229 9.4941ZM15.2069 16.7416C14.337 16.7416 13.495 16.56 12.7243 16.2144C14.4995 16.1502 15.7942 15.5308 16.4755 15.1373C16.8255 14.9353 17.1616 14.7059 17.4782 14.453C18.0455 14.6809 18.5689 14.9904 19.042 15.3776C17.9617 16.2613 16.6213 16.7416 15.2069 16.7416Z" fill="url(#paint0_linear_111_10279)"/>
  </g>
  <defs>
    <linearGradient id="paint0_linear_111_10279" x1="-10.625" y1="-7.31522" x2="23.9089" y2="-1.80363" gradientUnits="userSpaceOnUse">
      <stop stop-color="#F64D4D"/>
      <stop offset="1" stop-color="#4D5EF6"/>
    </linearGradient>
    <clipPath id="clip0_111_10279">
      <rect width="20" height="20" fill="white" transform="translate(0.5 0.46875)"/>
    </clipPath>
  </defs>
</svg>