<svg xmlns="http://www.w3.org/2000/svg" width="16" height="16" viewBox="0 0 16 16" fill="none">
  <path d="M7.75876 2.13965L9.47799 5.88864L13.4358 6.43151L10.5405 9.29139L11.2674 13.3759L7.75876 11.3944L4.25012 13.3759L4.97698 9.29139L2.08167 6.43151L6.03953 5.88864L7.75876 2.13965Z" fill="url(#paint0_linear_111_193407)"/>
  <path d="M15.1664 6.24434C15.4418 5.96241 15.2828 5.48714 14.8932 5.4277L10.2603 4.72087L8.19669 0.329187C8.02242 -0.0416958 7.49487 -0.0416951 7.3206 0.329188L5.25701 4.72087L0.624038 5.42771C0.234451 5.48715 0.075425 5.96239 0.350779 6.24433L3.7178 9.6919L2.92543 14.5468C2.86036 14.9455 3.28347 15.2437 3.63708 15.0484L7.75865 12.7723L11.8801 15.0484C12.2338 15.2437 12.6569 14.9454 12.5918 14.5467L11.799 9.69187L15.1664 6.24434ZM7.75865 11.6027L4.01324 13.7025L4.72813 9.46551L1.50354 6.17385L5.86501 5.60667L7.75865 1.57089L9.63515 5.60669L13.982 6.22328L10.7891 9.48114L11.4567 13.7181L7.75865 11.6027Z" fill="black"/>
  <defs>
    <linearGradient id="paint0_linear_111_193407" x1="-4.2341" y1="-5.6633" x2="15.5848" y2="-3.28383" gradientUnits="userSpaceOnUse">
      <stop stop-color="#F64D4D"/>
      <stop offset="1" stop-color="#4D5EF6"/>
    </linearGradient>
  </defs>
</svg>