<svg width="28" height="26" viewBox="0 0 28 26" fill="none" xmlns="http://www.w3.org/2000/svg">
<g clip-path="url(#clip0_111_15868)">
<path d="M7.62222 2.3022C10.0597 2.57301 12.0908 4.33343 13.9867 6.63554C15.8825 4.33343 18.0625 2.3022 20.7708 2.3022C24.2917 2.3022 25.8974 5.49676 25.4971 8.21286C25.0908 10.9689 24.0207 11.3751 19.2681 17.1981L14.6639 22.6147C13.7659 23.5713 14.2077 23.5713 13.3097 22.6147L11.6847 20.5835L10.3304 18.9584L8.84097 17.1981C3.84359 11.3751 2.68508 9.88554 2.48938 8.21286C2.08304 4.73972 4.3853 1.94257 7.62222 2.3022Z" fill="url(#paint0_linear_111_15868)"/>
<path d="M20.771 0.258301C17.9501 0.258301 15.8156 1.91379 14.0002 3.64372C12.2702 1.80798 10.0502 0.258301 7.22933 0.258301C3.25653 0.258301 0.458496 3.67416 0.458496 7.39901C0.458496 9.39724 1.27693 10.8369 2.1732 12.1885L12.6959 24.8043C13.8774 26.0543 14.1 26.0543 15.2815 24.8043L25.8279 12.1885C26.8817 10.8369 27.5418 9.39724 27.5418 7.39901C27.5418 3.67421 24.7438 0.258301 20.771 0.258301ZM24.1564 11.8382L14.0002 23.9562L3.84391 11.7882C2.62941 10.0997 2.1512 8.96055 2.1512 7.39901C2.1512 4.48923 4.22901 1.86976 7.22933 1.8452C9.69732 1.82489 12.4945 4.34532 14.0002 6.2454C15.4661 4.41134 18.303 1.8452 20.771 1.8452C23.6917 1.8452 25.8491 4.48923 25.8491 7.39901C25.8491 8.96055 25.4708 10.1843 24.1564 11.8382Z" fill="black"/>
</g>
<defs>
<linearGradient id="paint0_linear_111_15868" x1="-10.4144" y1="-12.3548" x2="29.8291" y2="-7.10721" gradientUnits="userSpaceOnUse">
<stop stop-color="#F64D4D"/>
<stop offset="1" stop-color="#4D5EF6"/>
</linearGradient>
<clipPath id="clip0_111_15868">
<rect width="27.0833" height="26" fill="white" transform="translate(0.458496)"/>
</clipPath>
</defs>
</svg>
