<svg xmlns="http://www.w3.org/2000/svg" width="25" height="26" viewBox="0 0 25 26" fill="none">
  <g clip-path="url(#clip0_111_3515)">
    <path d="M24.9719 7.85007C24.9133 6.52172 24.6985 5.6085 24.3908 4.81717C24.0734 3.9772 23.585 3.22518 22.9451 2.60002C22.32 1.96513 21.563 1.47179 20.7328 1.15931C19.9369 0.851593 19.0284 0.636784 17.7001 0.578217C16.3618 0.514689 15.9369 0.5 12.5427 0.5C9.14851 0.5 8.72366 0.514689 7.39035 0.573257C6.06201 0.631824 5.14878 0.846824 4.35765 1.15435C3.51749 1.47179 2.76546 1.96017 2.1403 2.60002C1.50541 3.22518 1.01227 3.98216 0.699592 4.8124C0.391876 5.6085 0.177067 6.51676 0.1185 7.84511C0.0549726 9.18338 0.0402832 9.60823 0.0402832 13.0024C0.0402832 16.3967 0.0549726 16.8215 0.11354 18.1548C0.172107 19.4832 0.387107 20.3964 0.694822 21.1877C1.01227 22.0277 1.50541 22.7797 2.1403 23.4049C2.76546 24.0398 3.52245 24.5331 4.35269 24.8456C5.14878 25.1533 6.05704 25.3681 7.38558 25.4267C8.7187 25.4854 9.14374 25.4999 12.538 25.4999C15.9322 25.4999 16.357 25.4854 17.6903 25.4267C19.0187 25.3681 19.9319 25.1533 20.723 24.8456C22.4032 24.196 23.7315 22.8677 24.3811 21.1877C24.6886 20.3916 24.9036 19.4832 24.9622 18.1548C25.0207 16.8215 25.0354 16.3967 25.0354 13.0024C25.0354 9.60823 25.0305 9.18338 24.9719 7.85007ZM22.7206 18.0571C22.6668 19.2781 22.4617 19.9374 22.2908 20.3769C21.8707 21.4661 21.0063 22.3304 19.9172 22.7505C19.4777 22.9215 18.8136 23.1265 17.5974 23.1801C16.2788 23.2389 15.8833 23.2534 12.5477 23.2534C9.21203 23.2534 8.8116 23.2389 7.49776 23.1801C6.27681 23.1265 5.61751 22.9215 5.17797 22.7505C4.63598 22.5502 4.14265 22.2328 3.74222 21.8176C3.3271 21.4123 3.00965 20.9239 2.80934 20.3819C2.63841 19.9424 2.43333 19.2781 2.37972 18.0621C2.32096 16.7435 2.30647 16.3478 2.30647 13.0122C2.30647 9.67652 2.32096 9.27609 2.37972 7.96243C2.43333 6.74149 2.63841 6.08218 2.80934 5.64264C3.00965 5.10047 3.3271 4.60732 3.74718 4.2067C4.15238 3.79158 4.64075 3.47414 5.18293 3.27402C5.62247 3.10309 6.28673 2.89801 7.50272 2.84421C8.82133 2.78564 9.21699 2.77095 12.5525 2.77095C15.8931 2.77095 16.2885 2.78564 17.6024 2.84421C18.8233 2.89801 19.4826 3.10309 19.9222 3.27402C20.4642 3.47414 20.9575 3.79158 21.3579 4.2067C21.773 4.61209 22.0905 5.10047 22.2908 5.64264C22.4617 6.08218 22.6668 6.74626 22.7206 7.96243C22.7792 9.28105 22.7939 9.67652 22.7939 13.0122C22.7939 16.3478 22.7792 16.7385 22.7206 18.0571Z" fill="white"/>
    <path d="M12.5421 6.58032C8.99665 6.58032 6.12 9.45679 6.12 13.0025C6.12 16.5482 8.99665 19.4246 12.5421 19.4246C16.0878 19.4246 18.9643 16.5482 18.9643 13.0025C18.9643 9.45679 16.0878 6.58032 12.5421 6.58032ZM12.5421 17.1684C10.242 17.1684 8.37626 15.3028 8.37626 13.0025C8.37626 10.7021 10.242 8.83659 12.5421 8.83659C14.8425 8.83659 16.708 10.7021 16.708 13.0025C16.708 15.3028 14.8425 17.1684 12.5421 17.1684Z" fill="white"/>
    <path d="M20.7177 6.32643C20.7177 7.15438 20.0464 7.82571 19.2183 7.82571C18.3903 7.82571 17.719 7.15438 17.719 6.32643C17.719 5.49828 18.3903 4.82715 19.2183 4.82715C20.0464 4.82715 20.7177 5.49828 20.7177 6.32643Z" fill="white"/>
  </g>
  <defs>
    <clipPath id="clip0_111_3515">
      <rect width="25" height="25" fill="white" transform="translate(-0.00415039 0.5)"/>
    </clipPath>
  </defs>
</svg>