<svg width="188" height="64" viewBox="0 0 188 64" fill="none" xmlns="http://www.w3.org/2000/svg">
<path d="M0 12.8341V42.3208H9.7385V34.6121H12.9004C20.4045 34.6121 26.138 32.0005 26.138 23.7442C26.138 15.4458 20.4045 12.8341 12.9004 12.8341H0ZM16.4838 23.7442C16.4838 25.7661 15.0504 26.6086 12.816 26.6086H9.7385V20.8377H12.816C15.0504 20.8377 16.4838 21.6801 16.4838 23.7442Z" fill="black"/>
<path d="M29.066 12.8341V42.3208H51.4097V33.8118H38.8045V12.8341H29.066Z" fill="black"/>
<path d="M61.6426 42.3208L62.9495 38.4033H73.1517L74.4165 42.3208H84.2814L73.2782 12.8341H62.823L51.7776 42.3208H61.6426ZM67.2496 25.0922C67.5447 23.9969 67.8398 22.8175 68.0506 21.301C68.2614 22.8175 68.5565 23.9969 68.8938 25.0922L70.9595 31.3686H65.1839L67.2496 25.0922Z" fill="black"/>
<path d="M83.6296 27.8723C83.6296 38.6139 91.6818 42.9948 100.029 42.9948C103.149 42.9948 106.058 42.405 108.671 41.2256V32.3374C107.154 33.6854 104.329 34.4436 101.294 34.4436C97.4153 34.4436 93.6211 32.5059 93.6211 27.8723C93.6211 22.6069 97.4575 20.5849 101.505 20.5849C104.118 20.5849 106.817 21.4695 108.461 22.6069V13.9294C105.847 12.7499 102.812 12.1602 99.7761 12.1602C91.6818 12.1602 83.5875 16.6674 83.6296 27.8723Z" fill="black"/>
<path d="M112.229 12.8341V42.3208H134.826V34.57H121.968V31.0737H133.055V23.9127H121.968V20.5007H134.573V12.8341H112.229Z" fill="black"/>
<path d="M6.29492 52.8442H3.61475V60.1006H2.9541V52.8442H0.279297V52.2803H6.29492V52.8442ZM6.57551 57.1089C6.57551 56.5503 6.68293 56.0472 6.89777 55.5996C7.1162 55.152 7.42235 54.8047 7.81623 54.5576C8.21369 54.307 8.66307 54.1816 9.16437 54.1816C9.93781 54.1816 10.5644 54.4538 11.0443 54.998C11.5241 55.5387 11.764 56.2567 11.764 57.1519V57.2861C11.764 57.8483 11.6548 58.355 11.4363 58.8062C11.2215 59.2537 10.9171 59.5993 10.5233 59.8428C10.1294 60.0863 9.68 60.208 9.17512 60.208C8.40526 60.208 7.77863 59.9377 7.29523 59.397C6.81542 58.8527 6.57551 58.133 6.57551 57.2378V57.1089ZM7.22004 57.2861C7.22004 57.9808 7.39908 58.5519 7.75715 58.9995C8.1188 59.4435 8.59146 59.6655 9.17512 59.6655C9.7552 59.6655 10.2243 59.4435 10.5823 58.9995C10.944 58.5519 11.1248 57.9629 11.1248 57.2324V57.1089C11.1248 56.6649 11.0425 56.2585 10.8778 55.8896C10.713 55.5208 10.4821 55.2362 10.1849 55.0356C9.88768 54.8315 9.54751 54.7295 9.16437 54.7295C8.59146 54.7295 8.12417 54.9551 7.76252 55.4062C7.40087 55.8538 7.22004 56.4411 7.22004 57.168V57.2861ZM13.2208 60.1006V54.2891H15.3532C16.0908 54.2891 16.6565 54.4215 17.0504 54.6865C17.4443 54.9479 17.6412 55.3328 17.6412 55.8413C17.6412 56.1313 17.5535 56.391 17.3781 56.6201C17.2026 56.8457 16.9466 57.0104 16.61 57.1143C16.9896 57.1859 17.2939 57.3488 17.5231 57.603C17.7558 57.8573 17.8722 58.1527 17.8722 58.4893C17.8722 59.0013 17.6824 59.3988 17.3029 59.6816C16.9269 59.9609 16.3934 60.1006 15.7023 60.1006H13.2208ZM13.86 57.4258V59.5635H15.7238C16.2072 59.5635 16.5796 59.4704 16.841 59.2842C17.1023 59.098 17.233 58.8294 17.233 58.4785C17.233 58.1562 17.1023 57.9002 16.841 57.7104C16.5796 57.5207 16.2072 57.4258 15.7238 57.4258H13.86ZM13.86 56.8887H15.4874C16.4972 56.8743 17.0021 56.5306 17.0021 55.8574C17.0021 55.5029 16.8624 55.2451 16.5831 55.084C16.3074 54.9193 15.8974 54.8369 15.3532 54.8369H13.86V56.8887ZM23.0297 60.1006C22.9653 59.918 22.9241 59.6476 22.9062 59.2896C22.6806 59.5832 22.3924 59.8105 22.0415 59.9717C21.6941 60.1292 21.3253 60.208 20.935 60.208C20.3764 60.208 19.9235 60.0522 19.5761 59.7407C19.2324 59.4292 19.0605 59.0353 19.0605 58.5591C19.0605 57.9933 19.295 57.5457 19.7641 57.2163C20.2368 56.8869 20.8938 56.7222 21.7353 56.7222H22.9008V56.0615C22.9008 55.6462 22.7719 55.3203 22.5141 55.084C22.2599 54.8441 21.8875 54.7241 21.3969 54.7241C20.9493 54.7241 20.5787 54.8387 20.2851 55.0679C19.9915 55.297 19.8447 55.5728 19.8447 55.895L19.2002 55.8896C19.2002 55.4277 19.415 55.0285 19.8447 54.6919C20.2744 54.3517 20.8025 54.1816 21.4292 54.1816C22.0773 54.1816 22.5875 54.3446 22.9599 54.6704C23.3359 54.9927 23.5293 55.4438 23.54 56.0239V58.7739C23.54 59.3361 23.5991 59.7568 23.7172 60.0361V60.1006H23.0297ZM21.0102 59.6387C21.4399 59.6387 21.823 59.5348 22.1596 59.3271C22.4998 59.1195 22.7469 58.842 22.9008 58.4946V57.2163H21.7514C21.1105 57.2235 20.6092 57.3416 20.2475 57.5708C19.8859 57.7964 19.705 58.1079 19.705 58.5054C19.705 58.8312 19.825 59.1016 20.0649 59.3164C20.3084 59.5312 20.6235 59.6387 21.0102 59.6387ZM29.9866 57.2539C29.9866 58.1598 29.7861 58.8796 29.385 59.4131C28.984 59.943 28.4469 60.208 27.7737 60.208C26.9788 60.208 26.3701 59.9287 25.9475 59.3701V62.335H25.3084V54.2891H25.9046L25.9368 55.1108C26.3557 54.4914 26.9627 54.1816 27.7576 54.1816C28.4523 54.1816 28.9965 54.4448 29.3904 54.9712C29.7879 55.4976 29.9866 56.228 29.9866 57.1626V57.2539ZM29.3421 57.1411C29.3421 56.3999 29.1899 55.8145 28.8855 55.3848C28.5812 54.9551 28.1568 54.7402 27.6126 54.7402C27.2187 54.7402 26.8803 54.8351 26.5974 55.0249C26.3146 55.2147 26.0979 55.4904 25.9475 55.8521V58.6396C26.1015 58.9727 26.3217 59.2269 26.6082 59.4023C26.8946 59.5778 27.233 59.6655 27.6233 59.6655C28.164 59.6655 28.5847 59.4507 28.8855 59.021C29.1899 58.5877 29.3421 57.9611 29.3421 57.1411ZM32.1793 56.3999H33.8551C34.2848 56.3999 34.6607 56.4787 34.983 56.6362C35.3089 56.7902 35.5541 57.005 35.7188 57.2808C35.8871 57.5565 35.9713 57.877 35.9713 58.2422C35.9713 58.8044 35.7779 59.2555 35.3912 59.5957C35.0081 59.9323 34.4889 60.1006 33.8336 60.1006H31.5401V54.2891H32.1793V56.3999ZM32.1793 56.9478V59.5581H33.8443C34.3062 59.5581 34.6679 59.4417 34.9293 59.209C35.1943 58.9762 35.3268 58.6576 35.3268 58.2529C35.3268 57.8662 35.1979 57.5547 34.94 57.3184C34.6858 57.0785 34.3367 56.9549 33.8927 56.9478H32.1793ZM37.9425 60.1006H37.2979V54.2891H37.9425V60.1006ZM47.5997 54.2891H48.2442V60.1006H47.5997V55.3257L44.463 60.1006H43.8238V54.2891H44.463V59.0693L47.5997 54.2891ZM53.3736 55.8252C53.3736 55.4743 53.2429 55.2039 52.9815 55.0142C52.7202 54.8244 52.3603 54.7295 51.902 54.7295C51.4866 54.7295 51.1303 54.8369 50.8331 55.0518C50.5395 55.263 50.3927 55.5316 50.3927 55.8574H49.7535C49.7535 55.374 49.9594 54.9748 50.3712 54.6597C50.7866 54.3446 51.2968 54.187 51.902 54.187C52.568 54.187 53.0872 54.3302 53.4596 54.6167C53.832 54.9032 54.0182 55.3096 54.0182 55.8359C54.0182 56.1152 53.9322 56.3677 53.7604 56.5933C53.5885 56.8188 53.3378 56.9943 53.0084 57.1196C53.7532 57.3237 54.1256 57.7856 54.1256 58.5054C54.1256 59.0282 53.9233 59.4417 53.5187 59.7461C53.114 60.0505 52.5769 60.2026 51.9073 60.2026C51.2592 60.2026 50.7221 60.0397 50.296 59.7139C49.8699 59.388 49.6568 58.9619 49.6568 58.4355H50.3014C50.3014 58.7865 50.4553 59.0801 50.7633 59.3164C51.0748 59.5492 51.4562 59.6655 51.9073 59.6655C52.3979 59.6655 52.781 59.5635 53.0567 59.3594C53.336 59.1517 53.4757 58.8706 53.4757 58.5161C53.4757 58.1258 53.3486 57.8447 53.0943 57.6729C52.8401 57.501 52.4516 57.415 51.9288 57.415H51.0426V56.8564H52.0362C52.9278 56.835 53.3736 56.4912 53.3736 55.8252ZM61.4505 56.4321H60.3763V60.1006H59.7156V52.2803H60.3763V55.8682H61.4182L64.4422 52.2803H65.2747L62.0628 56.126L65.511 60.1006H64.6892L61.4505 56.4321ZM66.1139 57.1089C66.1139 56.5503 66.2213 56.0472 66.4361 55.5996C66.6546 55.152 66.9607 54.8047 67.3546 54.5576C67.7521 54.307 68.2014 54.1816 68.7027 54.1816C69.4762 54.1816 70.1028 54.4538 70.5826 54.998C71.0624 55.5387 71.3023 56.2567 71.3023 57.1519V57.2861C71.3023 57.8483 71.1931 58.355 70.9747 58.8062C70.7599 59.2537 70.4555 59.5993 70.0616 59.8428C69.6677 60.0863 69.2184 60.208 68.7135 60.208C67.9436 60.208 67.317 59.9377 66.8336 59.397C66.3538 58.8527 66.1139 58.133 66.1139 57.2378V57.1089ZM66.7584 57.2861C66.7584 57.9808 66.9374 58.5519 67.2955 58.9995C67.6572 59.4435 68.1298 59.6655 68.7135 59.6655C69.2936 59.6655 69.7626 59.4435 70.1207 58.9995C70.4824 58.5519 70.6632 57.9629 70.6632 57.2324V57.1089C70.6632 56.6649 70.5808 56.2585 70.4161 55.8896C70.2514 55.5208 70.0204 55.2362 69.7232 55.0356C69.426 54.8315 69.0859 54.7295 68.7027 54.7295C68.1298 54.7295 67.6625 54.9551 67.3009 55.4062C66.9392 55.8538 66.7584 56.4411 66.7584 57.168V57.2861ZM77.3622 57.2539C77.3622 58.1598 77.1617 58.8796 76.7607 59.4131C76.3596 59.943 75.8225 60.208 75.1493 60.208C74.3544 60.208 73.7457 59.9287 73.3232 59.3701V62.335H72.684V54.2891H73.2802L73.3124 55.1108C73.7314 54.4914 74.3383 54.1816 75.1332 54.1816C75.8279 54.1816 76.3722 54.4448 76.766 54.9712C77.1635 55.4976 77.3622 56.228 77.3622 57.1626V57.2539ZM76.7177 57.1411C76.7177 56.3999 76.5655 55.8145 76.2612 55.3848C75.9568 54.9551 75.5325 54.7402 74.9882 54.7402C74.5943 54.7402 74.2559 54.8351 73.9731 55.0249C73.6902 55.2147 73.4736 55.4904 73.3232 55.8521V58.6396C73.4771 58.9727 73.6974 59.2269 73.9838 59.4023C74.2703 59.5778 74.6086 59.6655 74.9989 59.6655C75.5396 59.6655 75.9604 59.4507 76.2612 59.021C76.5655 58.5877 76.7177 57.9611 76.7177 57.1411ZM81.0964 60.208C80.6023 60.208 80.1547 60.0863 79.7537 59.8428C79.3562 59.5993 79.0465 59.2609 78.8245 58.8276C78.6025 58.3908 78.4914 57.902 78.4914 57.3613V57.1304C78.4914 56.5718 78.5989 56.0687 78.8137 55.6211C79.0321 55.1735 79.3347 54.8226 79.7214 54.5684C80.1081 54.3105 80.5271 54.1816 80.9783 54.1816C81.6837 54.1816 82.2423 54.4233 82.654 54.9067C83.0694 55.3866 83.2771 56.0436 83.2771 56.8779V57.2378H79.1306V57.3613C79.1306 58.0202 79.3186 58.5698 79.6946 59.0103C80.0741 59.4471 80.5504 59.6655 81.1233 59.6655C81.467 59.6655 81.7696 59.6029 82.031 59.4775C82.296 59.3522 82.5359 59.1517 82.7507 58.876L83.1536 59.1821C82.6809 59.866 81.9952 60.208 81.0964 60.208ZM80.9783 54.7295C80.4949 54.7295 80.0867 54.9067 79.7537 55.2612C79.4242 55.6157 79.2237 56.092 79.1521 56.6899H82.6379V56.6201C82.62 56.0615 82.4607 55.6068 82.1599 55.2559C81.8591 54.9049 81.4652 54.7295 80.9783 54.7295ZM88.4024 54.2891H89.0469V60.1006H88.4024V55.3257L85.2657 60.1006H84.6265V54.2891H85.2657V59.0693L88.4024 54.2891ZM94.4664 57.1089C94.4664 56.5503 94.5738 56.0472 94.7886 55.5996C95.0071 55.152 95.3132 54.8047 95.7071 54.5576C96.1046 54.307 96.5539 54.1816 97.0552 54.1816C97.8287 54.1816 98.4553 54.4538 98.9351 54.998C99.4149 55.5387 99.6548 56.2567 99.6548 57.1519V57.2861C99.6548 57.8483 99.5456 58.355 99.3272 58.8062C99.1124 59.2537 98.808 59.5993 98.4141 59.8428C98.0202 60.0863 97.5709 60.208 97.066 60.208C96.2961 60.208 95.6695 59.9377 95.1861 59.397C94.7063 58.8527 94.4664 58.133 94.4664 57.2378V57.1089ZM95.1109 57.2861C95.1109 57.9808 95.2899 58.5519 95.648 58.9995C96.0097 59.4435 96.4823 59.6655 97.066 59.6655C97.6461 59.6655 98.1151 59.4435 98.4732 58.9995C98.8349 58.5519 99.0157 57.9629 99.0157 57.2324V57.1089C99.0157 56.6649 98.9333 56.2585 98.7686 55.8896C98.6039 55.5208 98.3729 55.2362 98.0757 55.0356C97.7785 54.8315 97.4384 54.7295 97.0552 54.7295C96.4823 54.7295 96.015 54.9551 95.6534 55.4062C95.2917 55.8538 95.1109 56.4411 95.1109 57.168V57.2861ZM105.042 54.8369H102.926V60.1006H102.281V54.8369H100.246V54.2891H105.042V54.8369ZM114.558 60.1006H113.914V54.8423H110.782V60.1006H110.138V54.2891H114.558V60.1006ZM121.01 57.2539C121.01 58.1598 120.81 58.8796 120.409 59.4131C120.008 59.943 119.471 60.208 118.797 60.208C118.003 60.208 117.394 59.9287 116.971 59.3701V62.335H116.332V54.2891H116.928L116.961 55.1108C117.379 54.4914 117.986 54.1816 118.781 54.1816C119.476 54.1816 120.02 54.4448 120.414 54.9712C120.812 55.4976 121.01 56.228 121.01 57.1626V57.2539ZM120.366 57.1411C120.366 56.3999 120.214 55.8145 119.909 55.3848C119.605 54.9551 119.181 54.7402 118.636 54.7402C118.242 54.7402 117.904 54.8351 117.621 55.0249C117.338 55.2147 117.122 55.4904 116.971 55.8521V58.6396C117.125 58.9727 117.345 59.2269 117.632 59.4023C117.918 59.5778 118.257 59.6655 118.647 59.6655C119.188 59.6655 119.608 59.4507 119.909 59.021C120.214 58.5877 120.366 57.9611 120.366 57.1411ZM122.14 57.1089C122.14 56.5503 122.247 56.0472 122.462 55.5996C122.68 55.152 122.986 54.8047 123.38 54.5576C123.778 54.307 124.227 54.1816 124.728 54.1816C125.502 54.1816 126.128 54.4538 126.608 54.998C127.088 55.5387 127.328 56.2567 127.328 57.1519V57.2861C127.328 57.8483 127.219 58.355 127 58.8062C126.786 59.2537 126.481 59.5993 126.087 59.8428C125.693 60.0863 125.244 60.208 124.739 60.208C123.969 60.208 123.343 59.9377 122.859 59.397C122.379 58.8527 122.14 58.133 122.14 57.2378V57.1089ZM122.784 57.2861C122.784 57.9808 122.963 58.5519 123.321 58.9995C123.683 59.4435 124.155 59.6655 124.739 59.6655C125.319 59.6655 125.788 59.4435 126.146 58.9995C126.508 58.5519 126.689 57.9629 126.689 57.2324V57.1089C126.689 56.6649 126.606 56.2585 126.442 55.8896C126.277 55.5208 126.046 55.2362 125.749 55.0356C125.452 54.8315 125.112 54.7295 124.728 54.7295C124.155 54.7295 123.688 54.9551 123.327 55.4062C122.965 55.8538 122.784 56.4411 122.784 57.168V57.2861ZM132.534 54.2891H133.178V60.1006H132.534V55.3257L129.397 60.1006H128.758V54.2891H129.397V59.0693L132.534 54.2891ZM138.363 55.8252C138.363 55.4743 138.232 55.2039 137.971 55.0142C137.709 54.8244 137.349 54.7295 136.891 54.7295C136.476 54.7295 136.119 54.8369 135.822 55.0518C135.529 55.263 135.382 55.5316 135.382 55.8574H134.743C134.743 55.374 134.949 54.9748 135.36 54.6597C135.776 54.3446 136.286 54.187 136.891 54.187C137.557 54.187 138.076 54.3302 138.449 54.6167C138.821 54.9032 139.007 55.3096 139.007 55.8359C139.007 56.1152 138.921 56.3677 138.75 56.5933C138.578 56.8188 138.327 56.9943 137.998 57.1196C138.742 57.3237 139.115 57.7856 139.115 58.5054C139.115 59.0282 138.912 59.4417 138.508 59.7461C138.103 60.0505 137.566 60.2026 136.896 60.2026C136.248 60.2026 135.711 60.0397 135.285 59.7139C134.859 59.388 134.646 58.9619 134.646 58.4355H135.291C135.291 58.7865 135.445 59.0801 135.752 59.3164C136.064 59.5492 136.445 59.6655 136.896 59.6655C137.387 59.6655 137.77 59.5635 138.046 59.3594C138.325 59.1517 138.465 58.8706 138.465 58.5161C138.465 58.1258 138.338 57.8447 138.084 57.6729C137.829 57.501 137.441 57.415 136.918 57.415H136.032V56.8564H137.025C137.917 56.835 138.363 56.4912 138.363 55.8252ZM140.658 60.1006V54.2891H142.79C143.528 54.2891 144.093 54.4215 144.487 54.6865C144.881 54.9479 145.078 55.3328 145.078 55.8413C145.078 56.1313 144.99 56.391 144.815 56.6201C144.639 56.8457 144.383 57.0104 144.047 57.1143C144.426 57.1859 144.731 57.3488 144.96 57.603C145.193 57.8573 145.309 58.1527 145.309 58.4893C145.309 59.0013 145.119 59.3988 144.74 59.6816C144.364 59.9609 143.83 60.1006 143.139 60.1006H140.658ZM141.297 57.4258V59.5635H143.16C143.644 59.5635 144.016 59.4704 144.278 59.2842C144.539 59.098 144.67 58.8294 144.67 58.4785C144.67 58.1562 144.539 57.9002 144.278 57.7104C144.016 57.5207 143.644 57.4258 143.16 57.4258H141.297ZM141.297 56.8887H142.924C143.934 56.8743 144.439 56.5306 144.439 55.8574C144.439 55.5029 144.299 55.2451 144.02 55.084C143.744 54.9193 143.334 54.8369 142.79 54.8369H141.297V56.8887ZM146.444 57.1089C146.444 56.5503 146.551 56.0472 146.766 55.5996C146.984 55.152 147.29 54.8047 147.684 54.5576C148.082 54.307 148.531 54.1816 149.032 54.1816C149.806 54.1816 150.432 54.4538 150.912 54.998C151.392 55.5387 151.632 56.2567 151.632 57.1519V57.2861C151.632 57.8483 151.523 58.355 151.304 58.8062C151.09 59.2537 150.785 59.5993 150.391 59.8428C149.997 60.0863 149.548 60.208 149.043 60.208C148.273 60.208 147.647 59.9377 147.163 59.397C146.683 58.8527 146.444 58.133 146.444 57.2378V57.1089ZM147.088 57.2861C147.088 57.9808 147.267 58.5519 147.625 58.9995C147.987 59.4435 148.459 59.6655 149.043 59.6655C149.623 59.6655 150.092 59.4435 150.45 58.9995C150.812 58.5519 150.993 57.9629 150.993 57.2324V57.1089C150.993 56.6649 150.91 56.2585 150.746 55.8896C150.581 55.5208 150.35 55.2362 150.053 55.0356C149.756 54.8315 149.416 54.7295 149.032 54.7295C148.459 54.7295 147.992 54.9551 147.631 55.4062C147.269 55.8538 147.088 56.4411 147.088 57.168V57.2861ZM152.498 59.5581L152.783 59.1875C153.234 58.5752 153.493 57.68 153.562 56.502L153.664 54.2891H157.096V59.5581H157.697V61.8086H157.058V60.1006H152.691V61.8086H152.074L152.079 59.5581H152.498ZM153.239 59.5581H156.451V54.8906H154.276L154.206 56.3999C154.142 57.7856 153.819 58.8384 153.239 59.5581ZM162.812 54.2891H163.456V60.1006H162.812V55.3257L159.675 60.1006H159.036V54.2891H159.675V59.0693L162.812 54.2891ZM169.409 54.8369H167.293V60.1006H166.648V54.8369H164.612V54.2891H169.409V54.8369ZM172.343 60.208C171.849 60.208 171.401 60.0863 171 59.8428C170.602 59.5993 170.293 59.2609 170.071 58.8276C169.849 58.3908 169.738 57.902 169.738 57.3613V57.1304C169.738 56.5718 169.845 56.0687 170.06 55.6211C170.278 55.1735 170.581 54.8226 170.968 54.5684C171.354 54.3105 171.773 54.1816 172.225 54.1816C172.93 54.1816 173.489 54.4233 173.9 54.9067C174.316 55.3866 174.523 56.0436 174.523 56.8779V57.2378H170.377V57.3613C170.377 58.0202 170.565 58.5698 170.941 59.0103C171.32 59.4471 171.797 59.6655 172.37 59.6655C172.713 59.6655 173.016 59.6029 173.277 59.4775C173.542 59.3522 173.782 59.1517 173.997 58.876L174.4 59.1821C173.927 59.866 173.241 60.208 172.343 60.208ZM172.225 54.7295C171.741 54.7295 171.333 54.9067 171 55.2612C170.671 55.6157 170.47 56.092 170.398 56.6899H173.884V56.6201C173.866 56.0615 173.707 55.6068 173.406 55.2559C173.105 54.9049 172.712 54.7295 172.225 54.7295ZM180.299 54.2891V60.1006H179.654V54.8423H177.275L177.173 57.0176C177.13 57.8232 177.049 58.4391 176.931 58.8652C176.813 59.2878 176.637 59.5993 176.405 59.7998C176.172 60.0003 175.862 60.1006 175.475 60.1006H175.228V59.5312L175.427 59.5205C175.796 59.5133 176.061 59.3343 176.222 58.9834C176.383 58.6325 176.489 58.0059 176.539 57.1035L176.657 54.2891H180.299ZM186.321 54.2891V60.1006H185.676V57.7588H183.872L182.454 60.1006H181.745L183.206 57.6782C182.808 57.5744 182.498 57.3739 182.276 57.0767C182.058 56.7795 181.949 56.4285 181.949 56.0239C181.949 55.4976 182.137 55.0768 182.513 54.7617C182.892 54.4466 183.404 54.2891 184.049 54.2891H186.321ZM182.593 56.0347C182.593 56.3748 182.701 56.6541 182.916 56.8726C183.134 57.091 183.437 57.2038 183.823 57.2109H185.676V54.8369H184.033C183.585 54.8369 183.232 54.9443 182.975 55.1592C182.72 55.374 182.593 55.6659 182.593 56.0347Z" fill="black"/>
<rect x="157.884" y="12.7593" width="9.85138" height="29.5542" fill="#4656E3"/>
<path d="M187.438 22.6107C175.617 22.6107 167.801 35.7787 167.736 42.3135H157.884C157.884 32.4621 167.736 12.7593 187.438 12.7593V22.6107Z" fill="#4D5EF6"/>
<path d="M146.161 12.759L139.174 12.759C139.174 24.2158 146.161 32.1337 152.237 32.1337C157.884 32.1337 164.692 24.0095 164.692 12.7589L157.884 12.7589C157.884 16.988 154.667 24.5389 152.237 24.5389C149.807 24.5389 146.161 17.073 146.161 12.759Z" fill="#F64D4D"/>
<path d="M187.438 32.4621C175.617 32.4621 167.801 19.294 167.736 12.7593H157.884C157.884 22.6107 167.736 42.3135 187.438 42.3135V32.4621Z" fill="#FE5F5F"/>
<rect x="136.31" y="12.7593" width="9.85138" height="29.5542" fill="#E34646"/>
<rect x="157.884" y="0.34668" width="9.85138" height="9.85138" fill="#FE5F5F"/>
<path d="M62.3993 9.99818H60.2681V4.0532H60.2219L57.8663 9.89921H56.4807L54.1318 4.0532H54.079V9.99818H51.9478V0.476967H54.7454L57.1471 6.59351H57.1999L59.6017 0.476967H62.3993V9.99818Z" fill="black"/>
<path d="M69.499 7.90655H66.3846L65.7776 9.99818H63.3099L66.51 0.476967H69.4726L72.6727 9.99818H70.0994L69.499 7.90655ZM66.8531 6.16462H69.0239L67.9682 2.49602H67.9154L66.8531 6.16462Z" fill="black"/>
<path d="M77.4762 0.476967C78.919 0.476967 80.0385 0.881657 80.8347 1.69104C81.6353 2.50921 82.0356 3.6727 82.0356 5.18149C82.0356 6.69908 81.6353 7.88236 80.8347 8.73133C80.0341 9.5759 78.9146 9.99818 77.4762 9.99818H73.5899V0.476967H77.4762ZM76.0114 8.04511H77.1529C78.7673 8.04511 79.5745 7.09277 79.5745 5.18809C79.5745 4.29953 79.3633 3.61551 78.941 3.13604C78.5187 2.66537 77.9227 2.43004 77.1529 2.43004H76.0114V8.04511Z" fill="black"/>
<path d="M89.7489 9.99818H83.2233V0.476967H89.7489V2.43004H85.6448V4.32372H89.5048V6.10524H85.6448V8.04511H89.7489V9.99818Z" fill="black"/>
<path d="M93.8464 9.99818V0.476967H96.2679V9.99818H93.8464Z" fill="black"/>
<path d="M97.7129 9.99818V0.476967H99.6462L103.684 6.01286H103.737V0.476967H106.033V9.99818H104.12L100.062 4.4095H100.009V9.99818H97.7129Z" fill="black"/>
<path d="M110.21 9.99818V0.476967H112.631V4.66023H112.684L115.924 0.476967H118.524L115.205 4.70642L118.715 9.99818H115.871L113.443 6.27679L112.631 7.30611V9.99818H110.21Z" fill="black"/>
<path d="M123.505 0.312012C124.948 0.312012 126.092 0.754092 126.936 1.63825C127.781 2.52241 128.203 3.72329 128.203 5.24087C128.203 6.75846 127.781 7.95714 126.936 8.8369C126.092 9.72106 124.948 10.1631 123.505 10.1631C122.058 10.1631 120.912 9.72106 120.068 8.8369C119.223 7.95714 118.801 6.75846 118.801 5.24087C118.801 3.72329 119.225 2.52241 120.074 1.63825C120.919 0.754092 122.063 0.312012 123.505 0.312012ZM123.505 2.27828C122.828 2.27828 122.287 2.54441 121.882 3.07666C121.473 3.61332 121.269 4.33472 121.269 5.24087C121.269 6.14263 121.471 6.86183 121.876 7.39849C122.28 7.93074 122.824 8.19687 123.505 8.19687C124.183 8.19687 124.724 7.93074 125.128 7.39849C125.538 6.86183 125.742 6.14263 125.742 5.24087C125.742 4.33472 125.538 3.61332 125.128 3.07666C124.724 2.54441 124.183 2.27828 123.505 2.27828Z" fill="black"/>
<path d="M131.806 5.00994H133.238C133.682 5.00994 134.029 4.88897 134.28 4.64703C134.531 4.4051 134.656 4.07739 134.656 3.6639C134.656 3.25481 134.527 2.9271 134.267 2.68077C134.007 2.43004 133.662 2.30467 133.231 2.30467H131.806V5.00994ZM131.806 9.99818H129.384V0.476967H133.475C134.654 0.476967 135.56 0.754092 136.194 1.30834C136.818 1.85379 137.131 2.62358 137.131 3.61771C137.131 4.21595 136.99 4.75261 136.708 5.22768C136.418 5.72474 136.018 6.08544 135.507 6.30978L137.408 9.99818H134.689L133.06 6.66609H131.806V9.99818Z" fill="black"/>
<path d="M144.87 9.99818H138.345V0.476967H144.87V2.43004H140.766V4.32372H144.626V6.10524H140.766V8.04511H144.87V9.99818Z" fill="black"/>
<path d="M151.897 7.90655H148.783L148.176 9.99818H145.708L148.908 0.476967H151.871L155.071 9.99818H152.498L151.897 7.90655ZM149.252 6.16462H151.422L150.367 2.49602H150.314L149.252 6.16462Z" fill="black"/>
</svg>
