<svg xmlns="http://www.w3.org/2000/svg" width="232" height="113" viewBox="0 0 232 113" fill="none">
  <g filter="url(#filter0_d_111_3493)">
    <path d="M40.6541 50.7024V74.4568H48.4994V68.2467H51.0465C57.0919 68.2467 61.7107 66.1427 61.7107 59.4915C61.7107 52.8063 57.0919 50.7024 51.0465 50.7024H40.6541ZM53.9333 59.4915C53.9333 61.1204 52.7786 61.7991 50.9786 61.7991H48.4994V57.15H50.9786C52.7786 57.15 53.9333 57.8287 53.9333 59.4915Z" fill="white"/>
    <path d="M64.0695 50.7024V74.4568H82.0696V67.6019H71.9148V50.7024H64.0695Z" fill="white"/>
    <path d="M90.3132 74.4568L91.366 71.3008H99.5849L100.604 74.4568H108.551L99.6868 50.7024H91.2641L82.366 74.4568H90.3132ZM94.8302 60.5774C95.0679 59.6951 95.3056 58.7449 95.4755 57.5233C95.6453 58.7449 95.883 59.6951 96.1547 60.5774L97.8189 65.6337H93.166L94.8302 60.5774Z" fill="white"/>
    <path d="M108.026 62.8171C108.026 71.4705 114.513 74.9997 121.237 74.9997C123.75 74.9997 126.094 74.5246 128.2 73.5744V66.4142C126.977 67.5001 124.701 68.1109 122.256 68.1109C119.132 68.1109 116.075 66.5499 116.075 62.8171C116.075 58.5753 119.166 56.9464 122.426 56.9464C124.532 56.9464 126.705 57.659 128.03 58.5753V51.5847C125.924 50.6345 123.479 50.1594 121.033 50.1594C114.513 50.1594 107.992 53.7904 108.026 62.8171Z" fill="white"/>
    <path d="M131.066 50.7024V74.4568H149.269V68.2127H138.911V65.3962H147.843V59.6272H138.911V56.8785H149.066V50.7024H131.066Z" fill="white"/>
    <rect x="167.845" y="50.6423" width="7.93625" height="23.8088" fill="#4656E3"/>
    <path d="M191.654 58.5787C182.13 58.5787 175.834 69.1868 175.781 74.4512H167.845C167.845 66.5149 175.781 50.6424 191.654 50.6424V58.5787Z" fill="#4D5EF6"/>
    <path d="M158.401 50.6423L152.772 50.6423C152.772 59.872 158.401 66.2506 163.295 66.2506C167.845 66.2506 173.329 59.7058 173.329 50.6423L167.845 50.6423C167.845 54.0492 165.253 60.1323 163.295 60.1323C161.337 60.1323 158.401 54.1177 158.401 50.6423Z" fill="#F64D4D"/>
    <path d="M191.654 66.5148C182.13 66.5148 175.834 55.9067 175.781 50.6423H167.845C167.845 58.5786 175.781 74.4511 191.654 74.4511V66.5148Z" fill="#FE5F5F"/>
    <rect x="150.465" y="50.6423" width="7.93625" height="23.8088" fill="#E34646"/>
    <rect x="167.845" y="40.6426" width="7.93625" height="7.93625" fill="#FE5F5F"/>
    <path d="M90.9227 48.4181H89.2058V43.6289H89.1686L87.2709 48.3384H86.1547L84.2624 43.6289H84.2198V48.4181H82.5029V40.7479H84.7567L86.6915 45.6753H86.7341L88.6689 40.7479H90.9227V48.4181Z" fill="white"/>
    <path d="M96.6422 46.7331H94.1332L93.6442 48.4181H91.6562L94.2342 40.7479H96.6209L99.1989 48.4181H97.1259L96.6422 46.7331ZM94.5106 45.3298H96.2594L95.409 42.3744H95.3664L94.5106 45.3298Z" fill="white"/>
    <path d="M103.069 40.7479C104.231 40.7479 105.133 41.0739 105.774 41.7259C106.419 42.3851 106.742 43.3224 106.742 44.5378C106.742 45.7604 106.419 46.7136 105.774 47.3976C105.129 48.078 104.227 48.4181 103.069 48.4181H99.9378V40.7479H103.069ZM101.889 46.8448H102.808C104.109 46.8448 104.759 46.0776 104.759 44.5431C104.759 43.8273 104.589 43.2763 104.249 42.89C103.908 42.5109 103.428 42.3213 102.808 42.3213H101.889V46.8448Z" fill="white"/>
    <path d="M112.955 48.4181H107.698V40.7479H112.955V42.3213H109.649V43.8468H112.759V45.282H109.649V46.8448H112.955V48.4181Z" fill="white"/>
    <path d="M116.256 48.4181V40.7479H118.207V48.4181H116.256Z" fill="white"/>
    <path d="M119.371 48.4181V40.7479H120.929L124.182 45.2076H124.224V40.7479H126.074V48.4181H124.533L121.264 43.9159H121.221V48.4181H119.371Z" fill="white"/>
    <path d="M129.439 48.4181V40.7479H131.39V44.1179H131.432L134.042 40.7479H136.136L133.463 44.1551L136.29 48.4181H134L132.043 45.4202L131.39 46.2494V48.4181H129.439Z" fill="white"/>
    <path d="M140.15 40.615C141.312 40.615 142.233 40.9711 142.914 41.6834C143.594 42.3957 143.934 43.3631 143.934 44.5857C143.934 45.8082 143.594 46.7739 142.914 47.4826C142.233 48.1949 141.312 48.551 140.15 48.551C138.984 48.551 138.061 48.1949 137.38 47.4826C136.7 46.7739 136.36 45.8082 136.36 44.5857C136.36 43.3631 136.702 42.3957 137.385 41.6834C138.066 40.9711 138.987 40.615 140.15 40.615ZM140.15 42.199C139.604 42.199 139.168 42.4134 138.842 42.8422C138.512 43.2745 138.348 43.8557 138.348 44.5857C138.348 45.3121 138.511 45.8915 138.837 46.3238C139.163 46.7526 139.6 46.967 140.15 46.967C140.695 46.967 141.131 46.7526 141.457 46.3238C141.787 45.8915 141.951 45.3121 141.951 44.5857C141.951 43.8557 141.787 43.2745 141.457 42.8422C141.131 42.4134 140.695 42.199 140.15 42.199Z" fill="white"/>
    <path d="M146.836 44.3996H147.99C148.348 44.3996 148.628 44.3022 148.83 44.1073C149.032 43.9124 149.133 43.6484 149.133 43.3153C149.133 42.9857 149.028 42.7217 148.819 42.5233C148.61 42.3213 148.332 42.2203 147.985 42.2203H146.836V44.3996ZM146.836 48.4181H144.886V40.7479H148.181C149.131 40.7479 149.861 40.9711 150.371 41.4176C150.874 41.857 151.126 42.4772 151.126 43.2781C151.126 43.76 151.013 44.1923 150.786 44.575C150.552 44.9755 150.229 45.2661 149.818 45.4468L151.349 48.4181H149.159L147.846 45.7338H146.836V48.4181Z" fill="white"/>
    <path d="M157.361 48.4181H152.104V40.7479H157.361V42.3213H154.055V43.8468H157.164V45.282H154.055V46.8448H157.361V48.4181Z" fill="white"/>
    <path d="M163.022 46.7331H160.513L160.024 48.4181H158.036L160.614 40.7479H163.001L165.579 48.4181H163.506L163.022 46.7331ZM160.891 45.3298H162.639L161.789 42.3744H161.746L160.891 45.3298Z" fill="white"/>
  </g>
  <defs>
    <filter id="filter0_d_111_3493" x="0.654053" y="0.61499" width="231" height="114.385" filterUnits="userSpaceOnUse" color-interpolation-filters="sRGB">
      <feFlood flood-opacity="0" result="BackgroundImageFix"/>
      <feColorMatrix in="SourceAlpha" type="matrix" values="0 0 0 0 0 0 0 0 0 0 0 0 0 0 0 0 0 0 127 0" result="hardAlpha"/>
      <feOffset/>
      <feGaussianBlur stdDeviation="20"/>
      <feColorMatrix type="matrix" values="0 0 0 0 0 0 0 0 0 0 0 0 0 0 0 0 0 0 0.12 0"/>
      <feBlend mode="normal" in2="BackgroundImageFix" result="effect1_dropShadow_111_3493"/>
      <feBlend mode="normal" in="SourceGraphic" in2="effect1_dropShadow_111_3493" result="shape"/>
    </filter>
  </defs>
</svg>