<svg xmlns="http://www.w3.org/2000/svg" width="20" height="21" viewBox="0 0 20 21" fill="none">
  <g clip-path="url(#clip0_111_10257)">
    <path d="M6.48438 0.78125C6.16078 0.78125 5.89844 1.04359 5.89844 1.36719V4.375H4.14062C3.81703 4.375 3.55469 4.63734 3.55469 4.96094V7.30469C3.55469 7.62828 3.81703 7.89062 4.14062 7.89062H4.72656V10.8203C4.72656 13.5401 6.79629 15.7854 9.4434 16.0644C9.72238 18.7115 11.9677 20.7812 14.6875 20.7812C15.0111 20.7812 15.2734 20.5189 15.2734 20.1953C15.2734 19.8717 15.0111 19.6094 14.6875 19.6094C12.612 19.6094 10.8919 18.0598 10.6228 16.0568C13.2381 15.7477 15.2734 13.5174 15.2734 10.8203V7.89062H15.8594C16.183 7.89062 16.4453 7.62828 16.4453 7.30469V4.96094C16.4453 4.63734 16.183 4.375 15.8594 4.375H14.1016V1.36719C14.1016 1.04359 13.8392 0.78125 13.5156 0.78125C13.192 0.78125 12.9297 1.04359 12.9297 1.36719V4.375H7.07031V1.36719C7.07031 1.04359 6.80797 0.78125 6.48438 0.78125ZM15.2734 6.71875H14.6875C14.3639 6.71875 14.1016 6.98109 14.1016 7.30469V10.8203C14.1016 13.0819 12.2616 14.9219 10 14.9219C7.7384 14.9219 5.89844 13.0819 5.89844 10.8203V7.30469C5.89844 6.98109 5.63609 6.71875 5.3125 6.71875H4.72656V5.54688H15.2734V6.71875Z" fill="url(#paint0_linear_111_10257)"/>
    <path d="M11.4338 10.2963L9.8172 9.48803L10.4142 8.891C10.962 8.3433 10.1342 7.51373 9.5856 8.06236L8.41372 9.23424C8.13126 9.5167 8.20841 9.99385 8.56599 10.1726L10.1826 10.981L9.5856 11.578C9.03658 12.127 9.87197 12.949 10.4142 12.4066L11.5861 11.2347C11.8686 10.9523 11.7914 10.4752 11.4338 10.2963Z" fill="url(#paint1_linear_111_10257)"/>
  </g>
  <defs>
    <linearGradient id="paint0_linear_111_10257" x1="-3.61572" y1="-13.1076" x2="19.0763" y2="-11.3699" gradientUnits="userSpaceOnUse">
      <stop stop-color="#F64D4D"/>
      <stop offset="1" stop-color="#4D5EF6"/>
    </linearGradient>
    <linearGradient id="paint1_linear_111_10257" x1="6.2867" y1="4.6171" x2="12.4627" y2="5.16574" gradientUnits="userSpaceOnUse">
      <stop stop-color="#F64D4D"/>
      <stop offset="1" stop-color="#4D5EF6"/>
    </linearGradient>
    <clipPath id="clip0_111_10257">
      <rect width="20" height="20" fill="white" transform="translate(0 0.78125)"/>
    </clipPath>
  </defs>
</svg>