<svg xmlns="http://www.w3.org/2000/svg" width="27" height="26" viewBox="0 0 27 26" fill="none">
  <g clip-path="url(#clip0_111_15759)">
    <path d="M26.4232 24.5855L19.5361 17.98C21.3396 16.0701 22.4477 13.5443 22.4477 10.7649C22.4469 4.81923 17.4224 0 11.2239 0C5.02545 0 0.000976562 4.81923 0.000976562 10.7649C0.000976562 16.7106 5.02545 21.5298 11.2239 21.5298C13.9021 21.5298 16.3584 20.6269 18.2879 19.1258L25.2017 25.7574C25.5386 26.0809 26.0855 26.0809 26.4224 25.7574C26.7601 25.434 26.7601 24.909 26.4232 24.5855ZM11.2239 19.8735C5.97933 19.8735 1.72778 15.7955 1.72778 10.7649C1.72778 5.73431 5.97933 1.65624 11.2239 1.65624C16.4685 1.65624 20.72 5.73431 20.72 10.7649C20.72 15.7955 16.4685 19.8735 11.2239 19.8735Z" fill="black"/>
  </g>
  <defs>
    <clipPath id="clip0_111_15759">
      <rect width="27" height="26" fill="white"/>
    </clipPath>
  </defs>
</svg>