<svg xmlns="http://www.w3.org/2000/svg" width="16" height="16" viewBox="0 0 16 16" fill="none">
  <path d="M15.1665 6.24434C15.4419 5.96241 15.2829 5.48714 14.8933 5.4277L10.2604 4.72087L8.19681 0.329187C8.02254 -0.0416958 7.495 -0.0416951 7.32072 0.329188L5.25713 4.72087L0.62416 5.42771C0.234574 5.48715 0.0755471 5.96239 0.350901 6.24433L3.71793 9.6919L2.92555 14.5468C2.86049 14.9455 3.28359 15.2437 3.6372 15.0484L7.75877 12.7723L11.8803 15.0484C12.2339 15.2437 12.657 14.9454 12.5919 14.5467L11.7991 9.69187L15.1665 6.24434ZM7.75877 11.6027L4.01336 13.7025L4.72825 9.46551L1.50366 6.17385L5.86513 5.60667L7.75877 1.57089L9.63527 5.60669L13.9821 6.22328L10.7893 9.48114L11.4568 13.7181L7.75877 11.6027Z" fill="black"/>
</svg>