<svg xmlns="http://www.w3.org/2000/svg" width="20" height="21" viewBox="0 0 20 21" fill="none">
  <path d="M18.2422 2.44531H1.75781C0.788555 2.44531 0 3.23387 0 4.20312V14.6719C0 15.6411 0.788555 16.4297 1.75781 16.4297H2.53906V17.0938C2.53906 17.4173 2.80141 17.6797 3.125 17.6797C3.44859 17.6797 3.71094 17.4173 3.71094 17.0938V16.4297H16.2891V17.0938C16.2891 17.4173 16.5514 17.6797 16.875 17.6797C17.1986 17.6797 17.4609 17.4173 17.4609 17.0938V16.4297H18.2422C19.2114 16.4297 20 15.6411 20 14.6719V4.20312C20 3.23387 19.2114 2.44531 18.2422 2.44531ZM13.7891 15.2578H1.75781C1.43473 15.2578 1.17188 14.995 1.17188 14.6719V4.20312C1.17188 3.88004 1.43473 3.61719 1.75781 3.61719H13.7891V15.2578ZM18.8281 14.6719C18.8281 14.995 18.5653 15.2578 18.2422 15.2578H14.9609V6.42969H18.8281V14.6719ZM18.8281 5.25781H14.9609V3.61719H18.2422C18.5653 3.61719 18.8281 3.88004 18.8281 4.20312V5.25781Z" fill="url(#paint0_linear_111_10343)"/>
  <path d="M16.3005 13.4581C16.3664 13.7756 16.6653 13.979 16.9895 13.9183C17.3079 13.852 17.5101 13.5519 17.4497 13.2292C17.376 12.8776 17.026 12.6855 16.7051 12.7831C16.4038 12.8793 16.2459 13.1666 16.3005 13.4581Z" fill="url(#paint1_linear_111_10343)"/>
  <path d="M16.3005 10.9581C16.3664 11.2756 16.6653 11.479 16.9895 11.4183C17.3079 11.352 17.5101 11.0519 17.4497 10.7292C17.376 10.3775 17.026 10.1856 16.7051 10.2831C16.4038 10.3793 16.2459 10.6666 16.3005 10.9581Z" fill="url(#paint2_linear_111_10343)"/>
  <path d="M16.3005 8.45813C16.3664 8.77563 16.6653 8.97902 16.9895 8.91828C17.3079 8.85196 17.5101 8.55192 17.4497 8.22922C17.376 7.87755 17.026 7.68556 16.7051 7.78313C16.4038 7.8793 16.2459 8.16657 16.3005 8.45813Z" fill="url(#paint3_linear_111_10343)"/>
  <path d="M4.29688 13.9297H10.7031C11.6724 13.9297 12.4609 13.1411 12.4609 12.1719V6.70312C12.4609 5.73387 11.6724 4.94531 10.7031 4.94531H4.29688C3.32762 4.94531 2.53906 5.73387 2.53906 6.70312V12.1719C2.53906 13.1411 3.32762 13.9297 4.29688 13.9297ZM3.71094 6.70312C3.71094 6.38004 3.97379 6.11719 4.29688 6.11719H10.7031C11.0262 6.11719 11.2891 6.38004 11.2891 6.70312V12.1719C11.2891 12.495 11.0262 12.7578 10.7031 12.7578H4.29688C3.97379 12.7578 3.71094 12.495 3.71094 12.1719V6.70312Z" fill="url(#paint4_linear_111_10343)"/>
  <defs>
    <linearGradient id="paint0_linear_111_10343" x1="-11.125" y1="-8.13412" x2="23.4474" y2="-2.74148" gradientUnits="userSpaceOnUse">
      <stop stop-color="#F64D4D"/>
      <stop offset="1" stop-color="#4D5EF6"/>
    </linearGradient>
    <linearGradient id="paint1_linear_111_10343" x1="15.6387" y1="11.9445" x2="17.6825" y2="12.1872" gradientUnits="userSpaceOnUse">
      <stop stop-color="#F64D4D"/>
      <stop offset="1" stop-color="#4D5EF6"/>
    </linearGradient>
    <linearGradient id="paint2_linear_111_10343" x1="15.6387" y1="9.44449" x2="17.6825" y2="9.68719" gradientUnits="userSpaceOnUse">
      <stop stop-color="#F64D4D"/>
      <stop offset="1" stop-color="#4D5EF6"/>
    </linearGradient>
    <linearGradient id="paint3_linear_111_10343" x1="15.6387" y1="6.94449" x2="17.6825" y2="7.18719" gradientUnits="userSpaceOnUse">
      <stop stop-color="#F64D4D"/>
      <stop offset="1" stop-color="#4D5EF6"/>
    </linearGradient>
    <linearGradient id="paint4_linear_111_10343" x1="-2.97998" y1="-1.29384" x2="14.2911" y2="0.97233" gradientUnits="userSpaceOnUse">
      <stop stop-color="#F64D4D"/>
      <stop offset="1" stop-color="#4D5EF6"/>
    </linearGradient>
  </defs>
</svg>