<svg xmlns="http://www.w3.org/2000/svg" width="26" height="26" viewBox="0 0 26 26" fill="none">
  <path d="M20.1998 7.28C20.1998 11.3006 16.9404 14.56 12.9198 14.56C8.89916 14.56 5.6398 11.3006 5.6398 7.28C5.6398 3.25937 8.89916 0 12.9198 0C16.9404 0 20.1998 3.25937 20.1998 7.28ZM7.387 7.28C7.387 10.3357 9.86411 12.8128 12.9198 12.8128C15.9755 12.8128 18.4526 10.3357 18.4526 7.28C18.4526 4.22432 15.9755 1.7472 12.9198 1.7472C9.86411 1.7472 7.387 4.22432 7.387 7.28Z" fill="black"/>
  <path d="M23.84 26C23.84 24.566 23.5575 23.146 23.0088 21.8211C22.46 20.4962 21.6556 19.2924 20.6416 18.2784C19.6276 17.2644 18.4238 16.46 17.0989 15.9112C15.774 15.3625 14.354 15.08 12.92 15.08C11.486 15.08 10.066 15.3625 8.74109 15.9112C7.41622 16.46 6.21241 17.2644 5.19839 18.2784C4.18438 19.2924 3.38002 20.4962 2.83123 21.8211C2.28245 23.146 2 24.566 2 26H3.74395C3.74395 24.795 3.9813 23.6018 4.44243 22.4885C4.90357 21.3752 5.57948 20.3636 6.43155 19.5116C7.28363 18.6595 8.29519 17.9836 9.40848 17.5224C10.5218 17.0613 11.715 16.8239 12.92 16.8239C14.125 16.8239 15.3182 17.0613 16.4315 17.5224C17.5448 17.9836 18.5564 18.6595 19.4084 19.5116C20.2605 20.3636 20.9364 21.3752 21.3976 22.4885C21.8587 23.6018 22.096 24.795 22.096 26H23.84Z" fill="black"/>
</svg>