<svg xmlns="http://www.w3.org/2000/svg" width="28" height="26" viewBox="0 0 28 26" fill="none">
  <g clip-path="url(#clip0_111_3519)">
    <path d="M26.4889 6.24695C26.6688 5.6366 26.4889 5.18738 25.6236 5.18738H22.7604C22.0313 5.18738 21.6959 5.57312 21.516 6.00281C21.516 6.00281 20.0577 9.57214 17.9966 11.8866C17.3306 12.5555 17.0243 12.7704 16.6597 12.7704C16.4799 12.7704 16.2028 12.5555 16.2028 11.9452V6.24695C16.2028 5.51453 15.9986 5.18738 15.3959 5.18738H10.8945C10.4375 5.18738 10.1653 5.52917 10.1653 5.84656C10.1653 6.53992 11.1959 6.70105 11.3028 8.65417V12.8925C11.3028 13.8202 11.1375 13.9911 10.7729 13.9911C9.80072 13.9911 7.43822 10.4071 6.03822 6.30554C5.75628 5.50964 5.47919 5.18738 4.74516 5.18738H1.88197C1.0653 5.18738 0.900024 5.57312 0.900024 6.00281C0.900024 6.76453 1.87225 10.5487 5.42572 15.5487C7.79308 18.9618 11.1278 20.8124 14.1611 20.8124C15.9841 20.8124 16.2077 20.4022 16.2077 19.6942C16.2077 16.4325 16.0424 16.1249 16.9563 16.1249C17.3792 16.1249 18.1084 16.3397 19.8097 17.9852C21.7542 19.9384 22.075 20.8124 23.1639 20.8124H26.0271C26.8438 20.8124 27.257 20.4022 27.0188 19.5917C26.4743 17.8876 22.7945 14.3817 22.6292 14.1473C22.2063 13.6005 22.3278 13.3563 22.6292 12.868C22.6341 12.8632 26.1292 7.92175 26.4889 6.24695Z" fill="white"/>
  </g>
  <defs>
    <clipPath id="clip0_111_3519">
      <rect width="28" height="25" fill="white" transform="translate(-0.00415039 0.5)"/>
    </clipPath>
  </defs>
</svg>